<svg xmlns="http://www.w3.org/2000/svg" width="30" height="28" viewBox="0 0 30 28">
    <g fill="#FFF">
        <path d="M12.384 22.674c-1.443 0-2.617 1.174-2.617 2.617 0 1.442 1.174 2.616 2.617 2.616 1.442 0 2.616-1.174 2.616-2.616 0-1.443-1.174-2.617-2.616-2.617zm0 3.772c-.637 0-1.156-.518-1.156-1.155 0-.638.519-1.156 1.156-1.156.637 0 1.155.518 1.155 1.156 0 .637-.518 1.155-1.155 1.155zM21.802 22.674c-1.442 0-2.616 1.174-2.616 2.617 0 1.442 1.174 2.616 2.616 2.616 1.443 0 2.617-1.174 2.617-2.616 0-1.443-1.174-2.617-2.617-2.617zm0 3.772c-.637 0-1.155-.518-1.155-1.155 0-.638.518-1.156 1.155-1.156s1.156.518 1.156 1.156c0 .637-.519 1.155-1.156 1.155zM22.297 8.72H11.889c-.401 0-.726.313-.726.699 0 .385.325.697.726.697h10.408c.401 0 .726-.312.726-.697 0-.386-.325-.698-.726-.698zM21.942 12.558h-9.35c-.404 0-.732.312-.732.698 0 .385.328.697.733.697h9.35c.404 0 .731-.312.731-.697 0-.385-.327-.698-.732-.698z"/>
        <path d="M29.668 5.307c-.28-.344-.697-.542-1.141-.542H5.583l-.464-2.248c-.096-.469-.416-.863-.856-1.053L1.03.06C.657-.1.223.071.061.443c-.162.373.01.807.382.969l3.233 1.402 3.565 17.29c.14.68.747 1.175 1.442 1.175H26.33c.407 0 .736-.33.736-.736 0-.407-.33-.736-.736-.736H8.683l-.433-2.103h18.216c.696 0 1.303-.495 1.443-1.175l2.06-9.995c.09-.435-.02-.882-.3-1.227zm-3.202 10.924H7.946l-2.06-9.994h22.64l-2.06 9.994z"/>
    </g>
</svg>
