<svg xmlns="http://www.w3.org/2000/svg" width="30" height="30" viewBox="0 0 30 30">
    <g fill="none" fill-rule="evenodd">
        <ellipse cx="14.559" cy="15" fill="#E03A00" rx="14.559" ry="15"/>
        <path fill="#940030" d="M1.592 1.442L0.317 0.125 0.041 1.845 0.683 2.987 1.389 3.138z" transform="translate(4.41 8.763)"/>
        <ellipse cx="14.473" cy="14.955" fill="#FFF" rx="6.746" ry="6.971"/>
        <path fill="#DBDBDB" d="M14.473 7.984c3.726 0 6.746 3.121 6.746 6.971s-3.02 6.972-6.746 6.972V7.984z"/>
        <ellipse cx="14.473" cy="14.955" fill="#E0E0E0" rx="4.722" ry="4.879"/>
        <path fill="#BABABA" d="M14.473 10.075c2.608 0 4.722 2.185 4.722 4.88s-2.114 4.88-4.722 4.88v-9.76z"/>
        <path fill="#FFF" d="M7.337 8.755c-.161 0-.292.135-.292.302v1.627c0 .511-.367.935-.842 1.008V9.057c0-.167-.131-.302-.293-.302-.161 0-.292.135-.292.302v2.635c-.476-.073-.842-.497-.842-1.008V9.057c0-.167-.131-.302-.293-.302-.161 0-.292.135-.292.302v1.627c0 .845.628 1.54 1.427 1.617v7.078c0 .167.13.303.292.303.162 0 .293-.136.293-.303v-7.078c.799-.076 1.427-.772 1.427-1.617V9.057c0-.167-.131-.302-.293-.302z"/>
        <path fill="#E0E0E0" d="M7.337 8.755c-.161 0-.292.135-.292.302v1.627c0 .511-.367.935-.842 1.008V9.057c0-.166-.13-.3-.29-.302V19.68c.16-.001.29-.136.29-.302V12.3c.799-.075 1.427-.771 1.427-1.616V9.057c0-.167-.131-.302-.293-.302z"/>
        <path fill="#FFF" d="M24.288 8.893c-.646.86-2.296 3.424-1.296 6.053h1.537V8.98c0-.133-.162-.191-.241-.086z"/>
        <path fill="#E0E0E0" d="M24.53 8.979c0-.133-.163-.191-.242-.086-.132.176-.306.424-.491.728v5.325h.732V8.98z"/>
        <path fill="#FEE187" d="M24.53 14.946v5.562c0 .439-.345.794-.77.794-.424 0-.769-.355-.769-.794v-5.562h1.538z"/>
        <path fill="#FFC61B" d="M23.797 14.946V21.3c.407-.02.732-.366.732-.792v-5.562h-.732z"/>
        <path fill="#FEE187" d="M6.624 14.955v5.162c0 .407-.32.737-.714.737-.394 0-.713-.33-.713-.737v-5.162h1.427z"/>
        <path fill="#FFC61B" d="M5.913 14.955v5.899c.393-.001.71-.33.71-.737v-5.162h-.71z"/>
    </g>
</svg>
