<svg xmlns="http://www.w3.org/2000/svg" width="111" height="20" viewBox="0 0 111 20">
    <g fill="none" fill-rule="evenodd">
        <path fill="red" d="M104.502 11.309c0 2.673-1.34 3.672-3.008 3.672s-3.001-.999-3.001-3.672V.655h-5.685V11.31c0 5.936 3.008 8.668 8.686 8.668s8.687-2.542 8.687-8.668V.655h-5.679V11.31zM91.537 7.535c0-2.621-.532-3.732-1.642-4.845C88.627 1.415 86.634.655 83.747.655h-8.965v4.98c1.649.909 2.673 2.64 2.673 4.519 0 1.88-1.024 3.61-2.673 4.52v4.982h5.343v-5.674h2.331l3.688 5.674h6.04l-4.374-6.673c2.344-1.003 3.727-2.827 3.727-5.448zm-8.069 2.45h-3.34V5.307h3.34c1.787 0 3.005.813 3.005 2.333 0 1.477-1.189 2.345-3.005 2.345z"/>
        <ellipse cx="72.286" cy="10.152" fill="red" rx="4.174" ry="4.164"/>
        <path fill="#036" d="M66.108.655L59.764 8.321 59.764.655 54.089.655 54.089 19.656 59.764 19.656 59.764 14.65 61.767 12.652 66.443 19.656 72.785 19.656 65.442 9.32 72.765.655zM42.39 5.989c0-.983.713-1.334 2.004-1.334 1.915.01 3.78.609 5.343 1.714l2.67-3.712C50.322.999 47.734.324 44.32.324c-4.598 0-7.248 2.513-7.248 6.045 0 3.964 3.159 5.015 7.248 5.939 2.607.596 3.24 1.032 3.24 1.818 0 .868-.768 1.186-2.196 1.186-2.307-.045-4.53-.867-6.309-2.332l-2.67 3.662c2.489 2.163 5.682 3.347 8.982 3.332 4.667 0 7.58-2.43 7.58-6.313 0-3.604-2.788-5.061-7.225-6.011-2.644-.593-3.33-.662-3.33-1.661z"/>
        <path fill="#036" d="M24.706 9.985V5.307h3.34c1.787 0 3.005.813 3.005 2.333 0 1.464-1.192 2.332-3.005 2.332h-3.34v.013zm9.77-7.299C33.21 1.412 31.216.652 28.328.652h-8.965v19h5.343v-5.67h2.338l3.688 5.674h6.04l-4.384-6.673c2.344-1.006 3.727-2.827 3.727-5.448 0-2.621-.532-3.732-1.639-4.849zM12.686 11.076c0 2.647-1.517 4.121-3.671 4.121-2.155 0-3.672-1.395-3.672-4.12V9.11c0-2.647 1.517-4.122 3.672-4.122 2.154 0 3.671 1.393 3.671 4.122v1.965zM8.847.328C3.445.328 0 3.07 0 9.173v1.965c0 5.914 3.448 8.846 8.847 8.846 5.4 0 8.848-2.415 8.848-8.518V9.173c0-5.913-3.449-8.845-8.848-8.845z"/>
    </g>
</svg>
