<?xml version="1.0" encoding="utf-8"?>
<!-- Svg Vector Icons : http://www.onlinewebfonts.com/icon -->
<!DOCTYPE svg PUBLIC "-//W3C//DTD SVG 1.1//EN" "http://www.w3.org/Graphics/SVG/1.1/DTD/svg11.dtd">
<svg version="1.1" xmlns="http://www.w3.org/2000/svg" xmlns:xlink="http://www.w3.org/1999/xlink" x="0px" y="0px" viewBox="0 0 1000 1000" enable-background="new 0 0 1000 1000" xml:space="preserve">
<metadata> Svg Vector Icons : http://www.onlinewebfonts.com/icon </metadata>
<g><g transform="translate(0.000000,512.000000) scale(0.100000,-0.100000)"><path d="M2334.2,4996c-377.8-80.5-692.3-393.1-794-786.3c-38.4-147.7-38.4-404.7-1.9-544.7c99.7-377.8,435.3-740.3,934-1006.8l159.2-84.4l-1173.7-5.8c-1150.7-5.8-1173.7-5.8-1225.5-46c-28.8-21.1-71-63.3-92.1-92.1c-40.3-51.8-40.3-72.9-40.3-1085.5S100,310.8,140.3,259C224.7,144,268.8,126.7,495.1,120.9l209-7.7l3.8-2355.1c5.7-2345.5,5.7-2357,46-2408.8c21.1-28.8,63.3-71,92.1-92.1l51.8-40.3H5000h4102.2l51.8,40.3c28.8,21.1,71,63.3,92.1,92.1c40.3,51.8,40.3,63.3,46,2408.8l3.8,2355.1l209.1,7.7c226.3,5.8,270.4,23,354.8,138.1c40.3,51.8,40.3,72.9,40.3,1085.5s0,1033.7-40.3,1085.5c-21.1,28.8-63.3,71-92.1,92.1c-51.8,40.3-74.8,40.3-1225.5,46l-1173.7,5.8l159.2,84.4c498.6,266.6,834.2,629,934,1006.8c36.4,136.2,36.4,402.7,0,537c-109.3,414.2-412.3,711.5-807.4,795.9c-498.6,105.5-1150.7-126.6-1772.1-631c-299.2-243.6-667.4-661.6-817-930.1c-30.7-53.7-59.5-97.8-65.2-97.8s-30.7,36.4-55.6,82.5c-126.6,224.4-400.8,556.2-654,792.1c-182.2,168.8-293.4,257-498.6,391.2C3270.1,4946.1,2748.5,5086.1,2334.2,4996z M2844.4,4374.6c193.7-49.9,460.3-178.3,684.7-329.9c232.1-157.3,638.6-561.9,794-792.1c138.1-205.2,241.6-406.6,224.4-433.4c-28.8-47.9-709.6,23-1045.2,109.3c-820.8,205.2-1378.9,609.9-1378.9,997.3c0,203.3,128.5,410.4,287.7,462.2C2516.4,4420.7,2679.5,4416.8,2844.4,4374.6z M7577.5,4390c168.8-51.8,299.2-253.1,299.2-466c0-454.5-790.1-934-1764.4-1072.1c-304.9-42.2-671.2-59.5-671.2-30.7c0,46,164.9,337.5,276.2,489c61.4,84.4,195.6,237.8,297.3,343.3C6530.4,4182.9,7205.5,4501.2,7577.5,4390z M5613.7-1100.7v-3078.1H5000h-613.7v3078.1v3078.1H5000h613.7V-1100.7z M3772.6,1344.5V730.8H2238.4H704.1v613.7v613.7h1534.2h1534.2V1344.5z M9295.9,1344.5V730.8H7761.6H6227.4v613.7v613.7h1534.2h1534.2V1344.5z M3772.6-2030.8v-2147.9H2545.2H1317.8v2147.9V117.1h1227.4h1227.4V-2030.8z M8682.2-2030.8v-2147.9H7454.8H6227.4v2147.9V117.1h1227.4h1227.4V-2030.8z"/></g></g>
</svg>