<svg xmlns="http://www.w3.org/2000/svg" width="30" height="30" viewBox="0 0 30 30">
    <g fill="none">
        <circle cx="15" cy="15" r="15" fill="#FF6262"/>
        <g fill="#494948">
            <path d="M11.512.461s-.042 4.789-1.25 5.33c-1.208.542-6.226.99-9.16.339C-.576 5.758.212.03.212.03" transform="translate(9.568 12.757)"/>
            <path d="M.213.03s-.789 5.728.889 6.1c1.228.272 2.82.352 4.345.313V.23L.213.03z" transform="translate(9.568 12.757)"/>
        </g>
        <path fill="#333" d="M15.05 12.957v6.18c2.126-.054 4.122-.336 4.827-.649 1.21-.538 1.253-5.3 1.253-5.3l-6.08-.231z"/>
        <path fill="#FCD088" d="M12.458 17.143L17.442 17.143 17.442 22.126 12.458 22.126z"/>
        <path fill="#DDAB62" d="M15.05 17.143L17.542 17.143 17.542 22.126 15.05 22.126z"/>
        <path fill="#FEE187" d="M20.905 21.094l-2.646-.532-.468-.686c-.087-.128-.253-.177-.395-.115l-.013.005c-1.553.672-3.312.67-4.864-.004-.141-.062-.306-.016-.395.11l-.483.69-2.646.531c-1.347.271-2.317 1.46-2.317 2.84v3.565C9.048 29.078 11.892 30 14.95 30s5.902-.921 8.273-2.502v-3.565c0-1.38-.97-2.569-2.318-2.84z"/>
        <path fill="#FFC61B" d="M23.322 23.933c0-1.38-.972-2.569-2.322-2.84l-2.651-.531-.47-.686c-.087-.128-.253-.177-.395-.115l-.013.005c-.773.334-1.597.501-2.421.503V30c3.058-.003 5.901-.924 8.272-2.501v-3.566z"/>
        <path fill="#FFEDB5" d="M20.297 12.025c.027-.248.04-.493.04-.731 0-3.155-2.411-5.713-5.387-5.713-2.975 0-5.388 2.558-5.388 5.713 0 .238.014.483.041.73-.522.137-.771.94-.555 1.802.217.864.819 1.456 1.345 1.324.048-.012.092-.031.135-.054.974 1.955 2.591 3.542 4.422 3.542 1.831 0 3.448-1.586 4.422-3.542.043.023.088.042.136.054.526.132 1.128-.46 1.344-1.324.216-.861-.032-1.666-.555-1.801z"/>
        <path fill="#E8CF89" d="M20.395 12.025c.027-.248.04-.493.04-.731 0-3.15-2.409-5.703-5.385-5.713v13.057c1.829-.01 3.444-1.592 4.417-3.542.044.023.088.043.136.055.528.132 1.132-.461 1.349-1.325.216-.86-.033-1.665-.557-1.801z"/>
        <path fill="#FEE187" d="M20.83 11.163c0-1.526-.484-2.848-1.292-3.858l.166-.192c.107-.123.094-.31-.03-.416l-1.035-.894c-.124-.107-.31-.094-.418.03l-.156.18c-.612-.37-1.3-.622-2.035-.742V4.98c0-.163-.132-.296-.296-.296h-1.369c-.163 0-.296.133-.296.296v.29c-.734.12-1.422.374-2.035.743l-.156-.18c-.107-.123-.293-.137-.417-.03l-1.035.894c-.124.106-.138.293-.03.416l.165.192c-.807 1.01-1.292 2.332-1.292 3.858h11.562z"/>
        <path fill="#FFC61B" d="M19.535 7.305l.166-.192c.107-.123.094-.31-.03-.416l-1.039-.894c-.124-.107-.311-.094-.418.03l-.157.18c-.614-.369-1.304-.622-2.04-.742V4.98c0-.163-.134-.296-.298-.296h-.67v6.479h5.782c0-1.526-.486-2.848-1.296-3.858z"/>
        <path fill="#273B7A" d="M10.975 20.73l-1.208.243v8.097c1.615.6 3.36.93 5.183.93s3.568-.33 5.183-.93v-8.097l-1.208-.242v3.664h-7.95v-3.664z"/>
        <path fill="#121149" d="M20.233 20.973l-1.212-.242v3.665H15.05V30c1.822-.002 3.567-.332 5.183-.93v-8.097z"/>
        <path fill="#494948" d="M11.931 11.168s5.557 4.877 7.813 5.178c0 0 2.256-2.255 1.01-5.12 0 0-8.689-2.012-11.164.117 0 0-.53 1.038.05 2.364.674 1.536.944 1.837.944 1.837s.1-3.04 1.347-4.376z"/>
        <path fill="#333" d="M20.757 11.194s-2.827-.663-5.707-.829v3.278c1.656 1.26 3.586 2.552 4.702 2.703 0 0 2.243-2.27 1.005-5.152z"/>
        <path fill="#FF5419" d="M14.95 9.568c-2.303 0-4.39.588-5.915 1.54-.117.073-.066.254.071.254h11.688c.137 0 .188-.181.071-.254-1.524-.952-3.611-1.54-5.915-1.54z"/>
        <path fill="#E03A00" d="M20.965 11.108c-1.525-.95-3.612-1.537-5.915-1.54v1.794h5.843c.138 0 .189-.181.072-.254z"/>
    </g>
</svg>
