<svg xmlns="http://www.w3.org/2000/svg" width="30" height="30" viewBox="0 0 30 30">
    <g fill="none" fill-rule="evenodd">
        <circle cx="15" cy="15" r="15" fill="#71E2EF"/>
        <path fill="#7C4C25" d="M9.285 11.616L20.388 11.616 20.388 22.912 9.285 22.912z"/>
        <path fill="#683E1E" d="M15.017 11.616L20.388 11.616 20.388 22.912 15.017 22.912z"/>
        <path fill="#FCD088" d="M21 21.478l-3.5-.435V17.5h-5v3.542l-3.5.435c-1.356.272-2.333 1.463-2.333 2.847v3.148C9.05 29.07 11.917 30 15 30c3.084 0 5.95-.931 8.333-2.527v-3.148c0-1.384-.977-2.575-2.334-2.847z"/>
        <path fill="#DDAC64" d="M23.333 24.325c0-1.384-.977-2.575-2.334-2.847l-3.499-.435V17.5h-2.483V30c3.077-.004 5.937-.934 8.316-2.527v-3.148z"/>
        <g fill="#FFEDB5">
            <path d="M11.013 5.84c0 3.222-2.465 7.5-5.505 7.5S.003 9.062.003 5.84C.003 2.618 2.467.007 5.508.007c3.04 0 5.505 2.611 5.505 5.833z" transform="translate(9.492 5.45)"/>
            <path d="M5.508.007C2.468.007.003 2.618.003 5.84s2.464 7.5 5.505 7.5h.017V.007h-.017z" transform="translate(9.492 5.45)"/>
        </g>
        <path fill="#E8D191" d="M20.505 11.29c0-3.216-2.456-5.824-5.488-5.834V18.79c3.032-.016 5.488-4.284 5.488-7.5z"/>
        <path fill="#7C4C25" d="M12.172 8.468s3.872 5.219 8.72 6.027c0 0 1.078-9.966-5.993-9.966-4.343 0-7.07 5.589-4.815 10.067 0 0-.1-3.603 2.088-6.128z"/>
        <path fill="#683E1E" d="M15.017 4.531v6.913c1.545 1.325 3.603 2.672 5.875 3.051 0 0 1.064-9.852-5.875-9.964z"/>
        <g fill="#FF6262">
            <path d="M1.87.799c0-.412.334-.746.746-.746s.746.334.746.746-.334 1.866-.746 1.866-.747-1.454-.747-1.866z" transform="translate(10.137 6.387)"/>
            <path d="M3.362 4.508c0 .413-.334.747-.746.747s-.747-.334-.747-.747c0-.412.335-1.866.747-1.866s.746 1.454.746 1.866z" transform="translate(10.137 6.387)"/>
            <path d="M4.47 1.907c.413 0 .747.335.747.747s-.334.746-.747.746c-.412 0-1.866-.334-1.866-.746 0-.413 1.454-.747 1.866-.747z" transform="translate(10.137 6.387)"/>
            <path d="M.761 3.4c-.412 0-.746-.334-.746-.746 0-.413.334-.747.746-.747s1.866.334 1.866.747c0 .412-1.454.746-1.866.746z" transform="translate(10.137 6.387)"/>
        </g>
        <g fill="#FFAD9E">
            <path d="M2.872.229c.292-.292.764-.292 1.056 0 .291.291.291.764 0 1.055-.292.292-1.556 1.083-1.848.792-.291-.292.5-1.556.792-1.847z" transform="translate(10.664 6.973)"/>
            <path d="M1.305 3.907c-.292.291-.764.291-1.056 0-.291-.292-.291-.764 0-1.056.292-.291 1.556-1.083 1.847-.791.292.291-.5 1.555-.791 1.847z" transform="translate(10.664 6.973)"/>
            <path d="M3.928 2.851c.291.292.291.764 0 1.056-.292.291-.764.291-1.056 0-.291-.292-1.083-1.556-.792-1.847.292-.292 1.556.5 1.848.791z" transform="translate(10.664 6.973)"/>
            <path d="M.25 1.284C-.043.993-.043.52.25.23c.29-.292.763-.292 1.055 0 .291.291 1.083 1.555.791 1.847-.291.291-1.555-.5-1.847-.792z" transform="translate(10.664 6.973)"/>
        </g>
        <circle cx="12.753" cy="9.052" r="1" fill="#366695"/>
        <path fill="#FFF" d="M20.754 25.084c-.55-1.171-2.578-1.378-4.528-.463-.458.215-.87.473-1.226.756-.357-.283-.768-.541-1.226-.756-1.95-.915-3.978-.708-4.528.463-.077.165-.12.34-.133.522h-.005v3.192C10.917 29.57 12.908 30 15 30c2.092 0 4.083-.429 5.892-1.202v-3.192h-.005c-.013-.182-.056-.357-.133-.522z"/>
        <path fill="#E0E0E0" d="M20.892 25.606h-.005c-.013-.182-.056-.357-.133-.522-.55-1.171-2.578-1.378-4.528-.463-.45.212-.856.465-1.21.744V30c2.086-.003 4.072-.43 5.876-1.202v-3.192z"/>
        <g fill="#FFF">
            <path d="M5.37.712c-.092 0-.183-.037-.249-.103-.065-.066-.104-.157-.104-.25s.039-.184.104-.25c.066-.065.157-.104.25-.104s.185.039.25.104c.066.066.103.157.103.25s-.037.184-.103.25-.157.103-.25.103zM2.51 2.212c-.004-.195.152-.356.347-.36.195-.003.356.152.36.347.003.196-.152.357-.347.36h-.006c-.193 0-.35-.154-.354-.347zm-.851.015c-.17-.098-.227-.315-.129-.483.098-.17.315-.227.484-.128.169.098.225.314.127.483-.065.113-.183.176-.306.176-.06 0-.12-.015-.176-.048zm1.92-.15c-.097-.169-.04-.386.13-.484.168-.098.384-.041.483.128.098.17.04.385-.128.483-.056.033-.118.049-.178.049-.121 0-.24-.064-.306-.176zM.753 1.463c-.13-.145-.118-.369.028-.5.145-.13.368-.116.499.03.129.145.117.368-.028.498-.068.06-.152.09-.236.09-.097 0-.194-.04-.263-.118zm3.725.012c-.143-.133-.15-.357-.016-.499.134-.142.357-.15.5-.016.142.133.149.356.016.499-.07.075-.164.112-.258.112-.087 0-.173-.031-.242-.096zM.37.712C.279.712.188.675.122.61.056.543.017.452.017.36S.056.175.121.109C.187.044.278.005.371.005S.556.044.62.11c.066.066.103.157.103.25S.687.543.621.609.464.712.371.712z" transform="translate(12.129 20.684)"/>
        </g>
    </g>
</svg>
