<svg xmlns="http://www.w3.org/2000/svg" width="30" height="30" viewBox="0 0 30 30">
    <g fill="none" fill-rule="evenodd">
        <circle cx="15" cy="15" r="15" fill="#84DBFF"/>
        <path fill="#324A5E" d="M26.065 15.714H3.94c-.392 0-.714-.321-.714-.714 0-.393.322-.714.714-.714h22.125c.393 0 .715.321.715.714 0 .393-.322.714-.715.714z"/>
        <path fill="#FFF" d="M21.25 20.232c-.863 0-1.565-.702-1.565-1.565v-7.334c0-.863.702-1.565 1.565-1.565s1.565.702 1.565 1.565v7.334c0 .863-.702 1.565-1.565 1.565z"/>
        <path fill="#E6E9EE" d="M24.381 18.78c-.863 0-1.566-.703-1.566-1.566v-4.428c0-.863.703-1.566 1.566-1.566.863 0 1.565.703 1.565 1.566v4.428c0 .863-.702 1.566-1.565 1.566z"/>
        <path fill="#FFF" d="M8.75 9.768c.863 0 1.565.702 1.565 1.565v7.334c0 .863-.702 1.565-1.565 1.565s-1.565-.702-1.565-1.565v-7.334c0-.863.702-1.565 1.565-1.565z"/>
        <path fill="#E6E9EE" d="M5.619 11.22c.863 0 1.566.703 1.566 1.566v4.428c0 .863-.703 1.566-1.566 1.566-.863 0-1.565-.703-1.565-1.566v-4.428c0-.863.702-1.566 1.565-1.566z"/>
    </g>
</svg>
