<svg xmlns="http://www.w3.org/2000/svg" width="86" height="16" viewBox="0 0 86 16">
    <g fill="none" fill-rule="evenodd">
        <path fill="red" d="M80.99 8.764c0 2.072-1.039 2.846-2.332 2.846s-2.326-.774-2.326-2.846V.508h-4.406v8.256c0 4.6 2.331 6.718 6.732 6.718 4.4 0 6.732-1.97 6.732-6.718V.508h-4.4v8.256zM70.941 5.84c0-2.032-.412-2.892-1.272-3.756-.983-.987-2.528-1.576-4.765-1.576h-6.948v3.859c1.278.704 2.071 2.046 2.071 3.502 0 1.457-.793 2.798-2.071 3.503v3.861h4.14v-4.397h1.808l2.858 4.397h4.68l-3.39-5.171c1.818-.777 2.89-2.191 2.89-4.222zm-6.253 1.899h-2.589V4.113h2.589c1.384 0 2.329.63 2.329 1.808 0 1.145-.922 1.818-2.33 1.818z"/>
        <ellipse cx="56.021" cy="7.868" fill="red" rx="3.235" ry="3.227"/>
        <path fill="#036" d="M51.234.508L46.317 6.449 46.317.508 41.919.508 41.919 15.233 46.317 15.233 46.317 11.354 47.869 9.805 51.494 15.233 56.408 15.233 50.717 7.223 56.393.508zM32.853 4.641c0-.762.552-1.033 1.552-1.033 1.485.008 2.93.471 4.141 1.328l2.07-2.877C38.999.774 36.994.251 34.346.251c-3.562 0-5.616 1.948-5.616 4.685 0 3.072 2.448 3.887 5.617 4.603 2.02.462 2.512.8 2.512 1.409 0 .673-.596.919-1.703.919-1.787-.035-3.51-.672-4.889-1.808l-2.07 2.839c1.93 1.676 4.404 2.593 6.962 2.582 3.616 0 5.874-1.884 5.874-4.893 0-2.793-2.16-3.922-5.6-4.659-2.048-.46-2.58-.512-2.58-1.287z"/>
        <path fill="#036" d="M19.147 7.739V4.113h2.589c1.384 0 2.328.63 2.328 1.808 0 1.135-.923 1.807-2.328 1.807h-2.589v.01zm7.572-5.657c-.982-.988-2.527-1.577-4.764-1.577h-6.949v14.726h4.141v-4.395h1.812l2.859 4.397h4.68L25.1 10.062c1.818-.78 2.89-2.191 2.89-4.222 0-2.032-.413-2.892-1.271-3.758zM9.832 8.584c0 2.052-1.176 3.194-2.846 3.194-1.67 0-2.845-1.082-2.845-3.194V7.061c0-2.052 1.176-3.194 2.845-3.194 1.67 0 2.846 1.079 2.846 3.194v1.523zM6.857.254C2.67.254 0 2.379 0 7.109v1.523c0 4.583 2.672 6.855 6.857 6.855 4.184 0 6.856-1.87 6.856-6.6V7.108c0-4.583-2.672-6.855-6.856-6.855z"/>
    </g>
</svg>
