<svg xmlns="http://www.w3.org/2000/svg" width="14" height="19" viewBox="0 0 14 19">
    <path fill="#373A3C" fill-rule="evenodd" d="M12.297 9.016h1.687c0 1.687-.586 3.164-1.757 4.43-1.172 1.265-2.586 2.023-4.243 2.273V19H6.016v-3.281c-1.657-.25-3.07-1.008-4.243-2.274C.602 12.18.016 10.703.016 9.015h1.687c0 1.47.524 2.68 1.57 3.633 1.047.954 2.29 1.43 3.727 1.43 1.438 0 2.68-.476 3.727-1.43 1.046-.953 1.57-2.164 1.57-3.632zm-5.297 3c-.813 0-1.516-.297-2.11-.891-.593-.594-.89-1.297-.89-2.11v-6c0-.812.297-1.515.89-2.109C5.485.312 6.188.016 7 .016s1.516.296 2.11.89c.593.594.89 1.297.89 2.11v6c0 .812-.297 1.515-.89 2.109-.594.594-1.297.89-2.11.89z"/>
</svg>
