<svg xmlns="http://www.w3.org/2000/svg" width="16" height="16" viewBox="0 0 16 16">
    <path fill="#4A4A4A" fill-rule="evenodd" d="M3.273 8.586c.73.73 1.615 1.094 2.657 1.094 1.041 0 1.927-.365 2.656-1.094.73-.73 1.094-1.615 1.094-2.656 0-1.042-.365-1.927-1.094-2.657C7.856 2.544 6.97 2.18 5.93 2.18c-1.042 0-1.927.364-2.657 1.093-.729.73-1.093 1.615-1.093 2.657 0 1.041.364 1.927 1.093 2.656zM10.93 9.68l4.14 4.14-1.25 1.25-4.14-4.14v-.664l-.235-.235c-.99.86-2.161 1.29-3.515 1.29-1.51 0-2.793-.522-3.848-1.563C1.027 8.716.5 7.44.5 5.93c0-1.51.527-2.793 1.582-3.848C3.137 1.027 4.419.5 5.93.5c1.51 0 2.786.527 3.828 1.582 1.041 1.055 1.562 2.337 1.562 3.848 0 1.354-.43 2.526-1.289 3.515l.235.235h.664z"/>
</svg>
